<svg width="850" height="100" viewBox="0 0 850 100" fill="none" xmlns="http://www.w3.org/2000/svg">
<rect x="800" width="16.6667" height="16.6667" fill="#FFE58B"/>
<rect x="800" y="16.6667" width="16.6667" height="16.6667" fill="#FFE58B"/>
<rect x="800" y="33.3335" width="16.6667" height="16.6667" fill="#FFE58B"/>
<rect x="800" y="50" width="16.6667" height="16.6667" fill="#FFE58B"/>
<rect x="800" y="66.6667" width="16.6667" height="16.6667" fill="#FFE58B"/>
<rect x="800" y="83.3333" width="16.6667" height="16.6667" fill="#FFE58B"/>
<rect x="816.667" y="83.3333" width="16.6667" height="16.6667" fill="#FFE58B"/>
<rect x="833.333" y="83.3333" width="16.6667" height="16.6667" fill="#FFE58B"/>
<rect x="816.667" y="33.3335" width="16.6667" height="16.6667" fill="#FFE58B"/>
<rect x="833.333" y="33.3335" width="16.6667" height="16.6667" fill="#FFE58B"/>
<rect x="816.667" width="16.6667" height="16.6667" fill="#FFE58B"/>
<rect x="833.333" width="16.6667" height="16.6667" fill="#FFE58B"/>
<rect x="733.333" width="16.6667" height="16.6667" fill="#FFE58B"/>
<rect x="733.333" y="16.6667" width="16.6667" height="16.6667" fill="#FFE58B"/>
<rect x="733.333" y="33.3335" width="16.6667" height="16.6667" fill="#FFE58B"/>
<rect x="733.333" y="50" width="16.6667" height="16.6667" fill="#FFE58B"/>
<rect x="733.333" y="66.6667" width="16.6667" height="16.6667" fill="#FFE58B"/>
<rect x="733.333" y="83.3333" width="16.6667" height="16.6667" fill="#FFE58B"/>
<rect x="750" width="16.6667" height="16.6667" fill="#FFE58B"/>
<rect x="766.667" width="16.6667" height="16.6667" fill="#FFE58B"/>
<rect x="750" y="33.3335" width="16.6667" height="16.6667" fill="#FFE58B"/>
<rect x="633.333" y="66.6667" width="16.6667" height="16.6667" fill="#FFE58B"/>
<rect x="633.333" y="83.3333" width="16.6667" height="16.6667" fill="#FFE58B"/>
<rect x="650" y="83.3333" width="16.6667" height="16.6667" fill="#FFE58B"/>
<rect x="666.667" y="83.3333" width="16.6667" height="16.6667" fill="#FFE58B"/>
<rect x="633.333" y="33.3335" width="16.6667" height="16.6667" fill="#FFE58B"/>
<rect x="633.333" y="16.6667" width="16.6667" height="16.6667" fill="#FFE58B"/>
<rect x="633.333" width="16.6667" height="16.6667" fill="#FFE58B"/>
<rect x="633.333" y="50" width="16.6667" height="16.6667" fill="#FFE58B"/>
<rect x="700" width="16.6667" height="16.6667" fill="#FFE58B"/>
<rect x="700" y="16.6667" width="16.6667" height="16.6667" fill="#FFE58B"/>
<rect x="700" y="31.3335" width="16.6667" height="16.6667" fill="#FFE58B"/>
<rect x="700" y="33.3335" width="16.6667" height="16.6667" fill="#FFE58B"/>
<rect x="700" y="50" width="16.6667" height="16.6667" fill="#FFE58B"/>
<rect x="700" y="66.6667" width="16.6667" height="16.6667" fill="#FFE58B"/>
<rect x="700" y="83.3333" width="16.6667" height="16.6667" fill="#FFE58B"/>
<rect x="500" width="16.6667" height="16.6667" fill="#FFE58B"/>
<rect x="500" y="16.6667" width="16.6667" height="16.6667" fill="#FFE58B"/>
<rect x="500" y="33.3335" width="16.6667" height="16.6667" fill="#FFE58B"/>
<rect x="500" y="50" width="16.6667" height="16.6667" fill="#FFE58B"/>
<rect x="500" y="66.6667" width="16.6667" height="16.6667" fill="#FFE58B"/>
<rect x="500" y="83.3333" width="16.6667" height="16.6667" fill="#FFE58B"/>
<rect x="516.667" width="16.6667" height="16.6667" fill="#FFE58B"/>
<rect x="533.333" width="16.6667" height="16.6667" fill="#FFE58B"/>
<rect x="516.667" y="33.3335" width="16.6667" height="16.6667" fill="#FFE58B"/>
<rect x="416.667" width="16.6667" height="16.6667" fill="#FFE58B"/>
<rect x="416.667" y="16.6667" width="16.6667" height="16.6667" fill="#FFE58B"/>
<rect x="416.667" y="33.3335" width="16.6667" height="16.6667" fill="#FFE58B"/>
<rect x="416.667" y="50" width="16.6667" height="16.6667" fill="#FFE58B"/>
<rect x="416.667" y="66.6667" width="16.6667" height="16.6667" fill="#FFE58B"/>
<rect x="416.667" y="83.3333" width="16.6667" height="16.6667" fill="#FFE58B"/>
<rect x="433.333" y="83.3333" width="16.6667" height="16.6667" fill="#FFE58B"/>
<rect x="450" y="83.3333" width="16.6667" height="16.6667" fill="#FFE58B"/>
<rect x="466.667" y="83.3333" width="16.6667" height="16.6667" fill="#FFE58B"/>
<rect x="466.667" y="66.6667" width="16.6667" height="16.6667" fill="#FFE58B"/>
<rect x="466.667" y="50" width="16.6667" height="16.6667" fill="#FFE58B"/>
<rect x="466.667" y="33.3335" width="16.6667" height="16.6667" fill="#FFE58B"/>
<rect x="466.667" y="16.6667" width="16.6667" height="16.6667" fill="#FFE58B"/>
<rect x="466.667" width="16.6667" height="16.6667" fill="#FFE58B"/>
<rect x="450" width="16.6667" height="16.6667" fill="#FFE58B"/>
<rect x="433.333" width="16.6667" height="16.6667" fill="#FFE58B"/>
<rect x="183.333" width="16.6667" height="16.6667" fill="#FFE58B"/>
<rect x="216.667" y="33.3335" width="16.6667" height="16.6667" fill="#FFE58B"/>
<rect x="233.334" y="16.6667" width="16.6667" height="16.6667" fill="#FFE58B"/>
<rect x="250" width="16.6667" height="16.6667" fill="#FFE58B"/>
<rect x="250" y="16.6667" width="16.6667" height="16.6667" fill="#FFE58B"/>
<rect x="250" y="33.3335" width="16.6667" height="16.6667" fill="#FFE58B"/>
<rect x="250" y="50" width="16.6667" height="16.6667" fill="#FFE58B"/>
<rect x="250" y="66.6667" width="16.6667" height="16.6667" fill="#FFE58B"/>
<rect x="250" y="83.3333" width="16.6667" height="16.6667" fill="#FFE58B"/>
<rect x="200" y="16.6667" width="16.6667" height="16.6667" fill="#FFE58B"/>
<rect x="183.333" y="16.6667" width="16.6667" height="16.6667" fill="#FFE58B"/>
<rect x="183.333" y="33.3335" width="16.6667" height="16.6667" fill="#FFE58B"/>
<rect x="183.333" y="50" width="16.6667" height="16.6667" fill="#FFE58B"/>
<rect x="183.333" y="66.6667" width="16.6667" height="16.6667" fill="#FFE58B"/>
<rect x="183.333" y="83.3333" width="16.6667" height="16.6667" fill="#FFE58B"/>
<rect x="283.333" width="16.6667" height="16.6667" fill="#FFE58B"/>
<rect x="283.333" y="16.6667" width="16.6667" height="16.6667" fill="#FFE58B"/>
<rect x="283.333" y="33.3335" width="16.6667" height="16.6667" fill="#FFE58B"/>
<rect x="283.333" y="50" width="16.6667" height="16.6667" fill="#FFE58B"/>
<rect x="283.333" y="66.6667" width="16.6667" height="16.6667" fill="#FFE58B"/>
<rect x="283.333" y="83.3333" width="16.6667" height="16.6667" fill="#FFE58B"/>
<rect x="300" y="83.3333" width="16.6667" height="16.6667" fill="#FFE58B"/>
<rect x="316.667" y="83.3333" width="16.6667" height="16.6667" fill="#FFE58B"/>
<rect x="300" y="33.3335" width="16.6667" height="16.6667" fill="#FFE58B"/>
<rect x="316.667" y="33.3335" width="16.6667" height="16.6667" fill="#FFE58B"/>
<rect x="300" width="16.6667" height="16.6667" fill="#FFE58B"/>
<rect x="316.667" width="16.6667" height="16.6667" fill="#FFE58B"/>
<rect x="116.667" width="16.6667" height="16.6667" fill="#FFE58B"/>
<rect x="100" y="16.6667" width="16.6667" height="16.6667" fill="#FFE58B"/>
<rect x="116.667" y="50" width="16.6667" height="16.6667" fill="#FFE58B"/>
<rect x="133.333" y="50" width="16.6667" height="16.6667" fill="#FFE58B"/>
<rect x="150" y="50" width="16.6667" height="16.6667" fill="#FFE58B"/>
<rect x="150" y="33.3335" width="16.6667" height="16.6667" fill="#FFE58B"/>
<rect x="150" y="16.6667" width="16.6667" height="16.6667" fill="#FFE58B"/>
<rect x="133.333" width="16.6667" height="16.6667" fill="#FFE58B"/>
<rect x="150" y="66.6667" width="16.6667" height="16.6667" fill="#FFE58B"/>
<rect x="150" y="83.3333" width="16.6667" height="16.6667" fill="#FFE58B"/>
<rect x="100" y="33.3335" width="16.6667" height="16.6667" fill="#FFE58B"/>
<rect x="100" y="50" width="16.6667" height="16.6667" fill="#FFE58B"/>
<rect x="100" y="66.6667" width="16.6667" height="16.6667" fill="#FFE58B"/>
<rect x="100" y="83.3333" width="16.6667" height="16.6667" fill="#FFE58B"/>
<rect x="50.0001" width="16.6667" height="16.6667" fill="#FFE58B"/>
<rect x="33.3333" width="16.6667" height="16.6667" fill="#FFE58B"/>
<rect x="16.6668" width="16.6667" height="16.6667" fill="#FFE58B"/>
<rect y="16.6667" width="16.6667" height="16.6667" fill="#FFE58B"/>
<rect y="66.6667" width="16.6667" height="16.6667" fill="#FFE58B"/>
<rect x="16.6668" y="83.3333" width="16.6667" height="16.6667" fill="#FFE58B"/>
<rect x="33.3333" y="83.3333" width="16.6667" height="16.6667" fill="#FFE58B"/>
<rect x="50.0001" y="83.3333" width="16.6667" height="16.6667" fill="#FFE58B"/>
<rect x="66.6667" y="66.6667" width="16.6667" height="16.6667" fill="#FFE58B"/>
<rect x="66.6667" y="50" width="16.6667" height="16.6667" fill="#FFE58B"/>
<rect x="50.0001" y="50" width="16.6667" height="16.6667" fill="#FFE58B"/>
<rect x="33.3333" y="50" width="16.6667" height="16.6667" fill="#FFE58B"/>
<rect y="50" width="16.6667" height="16.6667" fill="#FFE58B"/>
<rect y="33.3335" width="16.6667" height="16.6667" fill="#FFE58B"/>
</svg>
