<svg width="251" height="22" viewBox="0 0 251 22" fill="none" xmlns="http://www.w3.org/2000/svg">
<rect x="140.8" width="4.4" height="4.4" fill="#7298E2"/>
<rect x="145.2" width="4.4" height="4.4" fill="#7298E2"/>
<rect x="140.8" y="4.39999" width="4.4" height="4.4" fill="#7298E2"/>
<rect x="140.8" y="8.79999" width="4.4" height="4.4" fill="#7298E2"/>
<rect x="145.2" y="8.79999" width="4.4" height="4.4" fill="#7298E2"/>
<rect x="149.6" width="4.4" height="4.4" fill="#7298E2"/>
<rect x="140.8" y="13.2" width="4.4" height="4.4" fill="#7298E2"/>
<rect x="140.8" y="17.6" width="4.4" height="4.4" fill="#7298E2"/>
<rect x="123.2" width="4.4" height="4.4" fill="#7298E2"/>
<rect x="123.2" y="4.39999" width="4.4" height="4.4" fill="#7298E2"/>
<rect x="123.2" y="8.79999" width="4.4" height="4.4" fill="#7298E2"/>
<rect x="123.2" y="13.2" width="4.4" height="4.4" fill="#7298E2"/>
<rect x="123.2" y="17.6" width="4.4" height="4.4" fill="#7298E2"/>
<rect x="127.6" y="17.6" width="4.4" height="4.4" fill="#7298E2"/>
<rect x="132" y="17.6" width="4.4" height="4.4" fill="#7298E2"/>
<rect x="132" y="13.2" width="4.4" height="4.4" fill="#7298E2"/>
<rect x="132" y="8.79999" width="4.4" height="4.4" fill="#7298E2"/>
<rect x="132" y="4.39999" width="4.4" height="4.4" fill="#7298E2"/>
<rect x="132" width="4.4" height="4.4" fill="#7298E2"/>
<rect x="127.6" width="4.4" height="4.4" fill="#7298E2"/>
<rect x="22.0001" width="4.4" height="4.4" fill="#7298E2"/>
<rect x="22.0001" y="4.39999" width="4.4" height="4.4" fill="#7298E2"/>
<rect x="22.0001" y="8.79999" width="4.4" height="4.4" fill="#7298E2"/>
<rect x="22.0001" y="13.2" width="4.4" height="4.4" fill="#7298E2"/>
<rect x="26.4001" y="17.6" width="4.4" height="4.4" fill="#7298E2"/>
<rect x="30.8001" y="13.2" width="4.4" height="4.4" fill="#7298E2"/>
<rect x="30.8001" y="17.6" width="4.4" height="4.4" fill="#7298E2"/>
<rect x="22.0001" y="17.6" width="4.4" height="4.4" fill="#7298E2"/>
<rect x="30.8001" y="8.79999" width="4.4" height="4.4" fill="#7298E2"/>
<rect x="30.8001" y="4.39999" width="4.4" height="4.4" fill="#7298E2"/>
<rect x="30.8001" width="4.4" height="4.4" fill="#7298E2"/>
<rect x="83.6" width="4.4" height="4.4" fill="#7298E2"/>
<rect x="88" width="4.4" height="4.4" fill="#7298E2"/>
<rect x="83.6" y="4.39999" width="4.4" height="4.4" fill="#7298E2"/>
<rect x="83.6" y="8.79999" width="4.4" height="4.4" fill="#7298E2"/>
<rect x="83.6" y="13.2" width="4.4" height="4.4" fill="#7298E2"/>
<rect x="83.6" y="17.6" width="4.4" height="4.4" fill="#7298E2"/>
<rect x="88" y="17.6" width="4.4" height="4.4" fill="#7298E2"/>
<rect x="88" y="8.79999" width="4.4" height="4.4" fill="#7298E2"/>
<rect x="96.8" width="4.4" height="4.4" fill="#7298E2"/>
<rect x="96.8" y="4.39999" width="4.4" height="4.4" fill="#7298E2"/>
<rect x="96.8" y="8.79999" width="4.4" height="4.4" fill="#7298E2"/>
<rect x="96.8" y="13.2" width="4.4" height="4.4" fill="#7298E2"/>
<rect x="96.8" y="17.6" width="4.4" height="4.4" fill="#7298E2"/>
<rect x="101.2" width="4.4" height="4.4" fill="#7298E2"/>
<rect x="105.6" y="4.39999" width="4.4" height="4.4" fill="#7298E2"/>
<rect x="105.6" width="4.4" height="4.4" fill="#7298E2"/>
<rect x="105.6" y="8.79999" width="4.4" height="4.4" fill="#7298E2"/>
<rect x="101.2" y="13.2" width="4.4" height="4.4" fill="#7298E2"/>
<rect x="105.6" y="17.6" width="4.4" height="4.4" fill="#7298E2"/>
<rect x="66.0001" width="4.4" height="4.4" fill="#7298E2"/>
<rect x="70.4001" width="4.4" height="4.4" fill="#7298E2"/>
<rect x="74.8001" width="4.4" height="4.4" fill="#7298E2"/>
<rect x="74.8001" y="4.39999" width="4.4" height="4.4" fill="#7298E2"/>
<rect x="70.4001" y="8.79999" width="4.4" height="4.4" fill="#7298E2"/>
<rect x="74.8001" y="13.2" width="4.4" height="4.4" fill="#7298E2"/>
<rect x="74.8001" y="17.6" width="4.4" height="4.4" fill="#7298E2"/>
<rect x="70.4001" y="17.6" width="4.4" height="4.4" fill="#7298E2"/>
<rect x="66.0001" y="17.6" width="4.4" height="4.4" fill="#7298E2"/>
<rect x="66.0001" y="4.39999" width="4.4" height="4.4" fill="#7298E2"/>
<rect x="66.0001" y="8.79999" width="4.4" height="4.4" fill="#7298E2"/>
<rect x="66.0001" y="13.2" width="4.4" height="4.4" fill="#7298E2"/>
<rect x="39.6" width="4.4" height="4.4" fill="#7298E2"/>
<rect x="39.6" y="4.39999" width="4.4" height="4.4" fill="#7298E2"/>
<rect x="39.6" y="8.79999" width="4.4" height="4.4" fill="#7298E2"/>
<rect x="39.6" y="13.2" width="4.4" height="4.4" fill="#7298E2"/>
<rect x="39.6" y="17.6" width="4.4" height="4.4" fill="#7298E2"/>
<rect x="44" y="4.39999" width="4.4" height="4.4" fill="#7298E2"/>
<rect x="48.4" y="8.79999" width="4.4" height="4.4" fill="#7298E2"/>
<rect x="52.8" y="4.39999" width="4.4" height="4.4" fill="#7298E2"/>
<rect x="57.2" width="4.4" height="4.4" fill="#7298E2"/>
<rect x="57.2" y="4.39999" width="4.4" height="4.4" fill="#7298E2"/>
<rect x="57.2" y="8.79999" width="4.4" height="4.4" fill="#7298E2"/>
<rect x="57.2" y="13.2" width="4.4" height="4.4" fill="#7298E2"/>
<rect x="57.2" y="17.6" width="4.4" height="4.4" fill="#7298E2"/>
<rect width="4.4" height="4.4" fill="#7298E2"/>
<rect x="4.40002" y="8.79999" width="4.4" height="4.4" fill="#7298E2"/>
<rect x="8.80005" y="13.2" width="4.4" height="4.4" fill="#7298E2"/>
<rect x="13.2001" y="8.79999" width="4.4" height="4.4" fill="#7298E2"/>
<rect x="13.2001" y="4.39999" width="4.4" height="4.4" fill="#7298E2"/>
<rect x="13.2001" width="4.4" height="4.4" fill="#7298E2"/>
<rect x="6.10352e-05" y="17.6" width="4.4" height="4.4" fill="#7298E2"/>
<rect x="13.2001" y="17.6" width="4.4" height="4.4" fill="#7298E2"/>
<rect x="13.2001" y="13.2" width="4.4" height="4.4" fill="#7298E2"/>
<rect x="6.10352e-05" y="4.39999" width="4.4" height="4.4" fill="#7298E2"/>
<rect x="6.10352e-05" y="8.79999" width="4.4" height="4.4" fill="#7298E2"/>
<rect x="6.10352e-05" y="13.2" width="4.4" height="4.4" fill="#7298E2"/>
<rect x="224.4" width="4.4" height="4.4" fill="#7298E2"/>
<rect x="228.8" width="4.4" height="4.4" fill="#7298E2"/>
<rect x="224.4" y="4.39999" width="4.4" height="4.4" fill="#7298E2"/>
<rect x="224.4" y="8.79999" width="4.4" height="4.4" fill="#7298E2"/>
<rect x="224.4" y="13.2" width="4.4" height="4.4" fill="#7298E2"/>
<rect x="224.4" y="17.6" width="4.4" height="4.4" fill="#7298E2"/>
<rect x="228.8" y="17.6" width="4.4" height="4.4" fill="#7298E2"/>
<rect x="228.8" y="8.79999" width="4.4" height="4.4" fill="#7298E2"/>
<rect x="206.8" width="4.4" height="4.4" fill="#7298E2"/>
<rect x="206.8" y="4.39999" width="4.4" height="4.4" fill="#7298E2"/>
<rect x="206.8" y="8.79999" width="4.4" height="4.4" fill="#7298E2"/>
<rect x="206.8" y="13.2" width="4.4" height="4.4" fill="#7298E2"/>
<rect x="206.8" y="17.6" width="4.4" height="4.4" fill="#7298E2"/>
<rect x="211.2" y="17.6" width="4.4" height="4.4" fill="#7298E2"/>
<rect x="215.6" y="13.2" width="4.4" height="4.4" fill="#7298E2"/>
<rect x="215.6" y="8.79999" width="4.4" height="4.4" fill="#7298E2"/>
<rect x="215.6" y="4.39999" width="4.4" height="4.4" fill="#7298E2"/>
<rect x="211.2" width="4.4" height="4.4" fill="#7298E2"/>
<rect x="246.4" width="4.4" height="4.4" fill="#7298E2"/>
<rect x="242" width="4.4" height="4.4" fill="#7298E2"/>
<rect x="246.4" y="17.6" width="4.4" height="4.4" fill="#7298E2"/>
<rect x="237.6" width="4.4" height="4.4" fill="#7298E2"/>
<rect x="237.6" y="4.39999" width="4.4" height="4.4" fill="#7298E2"/>
<rect x="242" y="8.79999" width="4.4" height="4.4" fill="#7298E2"/>
<rect x="246.4" y="13.2" width="4.4" height="4.4" fill="#7298E2"/>
<rect x="242" y="17.6" width="4.4" height="4.4" fill="#7298E2"/>
<rect x="237.6" y="17.6" width="4.4" height="4.4" fill="#7298E2"/>
<rect x="189.2" width="4.4" height="4.4" fill="#7298E2"/>
<rect x="189.2" y="4.39999" width="4.4" height="4.4" fill="#7298E2"/>
<rect x="189.2" y="8.79999" width="4.4" height="4.4" fill="#7298E2"/>
<rect x="189.2" y="13.2" width="4.4" height="4.4" fill="#7298E2"/>
<rect x="189.2" y="17.6" width="4.4" height="4.4" fill="#7298E2"/>
<rect x="193.6" y="17.6" width="4.4" height="4.4" fill="#7298E2"/>
<rect x="198" y="17.6" width="4.4" height="4.4" fill="#7298E2"/>
<rect x="198" y="13.2" width="4.4" height="4.4" fill="#7298E2"/>
<rect x="198" y="8.79999" width="4.4" height="4.4" fill="#7298E2"/>
<rect x="198" y="4.39999" width="4.4" height="4.4" fill="#7298E2"/>
<rect x="198" width="4.4" height="4.4" fill="#7298E2"/>
<rect x="193.6" width="4.4" height="4.4" fill="#7298E2"/>
<rect x="167.2" width="4.4" height="4.4" fill="#7298E2"/>
<rect x="171.6" y="8.79999" width="4.4" height="4.4" fill="#7298E2"/>
<rect x="176" y="13.2" width="4.4" height="4.4" fill="#7298E2"/>
<rect x="180.4" y="8.79999" width="4.4" height="4.4" fill="#7298E2"/>
<rect x="180.4" y="4.39999" width="4.4" height="4.4" fill="#7298E2"/>
<rect x="180.4" width="4.4" height="4.4" fill="#7298E2"/>
<rect x="167.2" y="17.6" width="4.4" height="4.4" fill="#7298E2"/>
<rect x="180.4" y="17.6" width="4.4" height="4.4" fill="#7298E2"/>
<rect x="180.4" y="13.2" width="4.4" height="4.4" fill="#7298E2"/>
<rect x="167.2" y="4.39999" width="4.4" height="4.4" fill="#7298E2"/>
<rect x="167.2" y="8.79999" width="4.4" height="4.4" fill="#7298E2"/>
<rect x="167.2" y="13.2" width="4.4" height="4.4" fill="#7298E2"/>
</svg>
