<svg width="180" height="50" viewBox="0 0 180 50" fill="none" xmlns="http://www.w3.org/2000/svg">
<rect width="10" height="10" fill="#FFE58B"/>
<rect x="10" width="10" height="10" fill="#FFE58B"/>
<rect x="20" width="10" height="10" fill="#FFE58B"/>
<rect y="10" width="10" height="10" fill="#FFE58B"/>
<rect y="20" width="10" height="10" fill="#FFE58B"/>
<rect y="30" width="10" height="10" fill="#FFE58B"/>
<rect y="40" width="10" height="10" fill="#FFE58B"/>
<rect x="10" y="20" width="10" height="10" fill="#FFE58B"/>
<rect x="20" y="20" width="10" height="10" fill="#FFE58B"/>
<rect x="20" y="10" width="10" height="10" fill="#FFE58B"/>
<rect x="160" width="10" height="10" fill="#FFE58B"/>
<rect x="170" width="10" height="10" fill="#FFE58B"/>
<rect x="160" y="10" width="10" height="10" fill="#FFE58B"/>
<rect x="160" y="20" width="10" height="10" fill="#FFE58B"/>
<rect x="160" y="30" width="10" height="10" fill="#FFE58B"/>
<rect x="160" y="40" width="10" height="10" fill="#FFE58B"/>
<rect x="170" y="40" width="10" height="10" fill="#FFE58B"/>
<rect x="170" y="20" width="10" height="10" fill="#FFE58B"/>
<rect x="140" width="10" height="10" fill="#FFE58B"/>
<rect x="130" width="10" height="10" fill="#FFE58B"/>
<rect x="140" y="40" width="10" height="10" fill="#FFE58B"/>
<rect x="130" y="20" width="10" height="10" fill="#FFE58B"/>
<rect x="140" y="30" width="10" height="10" fill="#FFE58B"/>
<rect x="130" y="40" width="10" height="10" fill="#FFE58B"/>
<rect x="120" y="40" width="10" height="10" fill="#FFE58B"/>
<rect x="80" y="20" width="10" height="10" fill="#FFE58B"/>
<rect x="80" y="30" width="10" height="10" fill="#FFE58B"/>
<rect x="90" y="40" width="10" height="10" fill="#FFE58B"/>
<rect x="100" y="30" width="10" height="10" fill="#FFE58B"/>
<rect x="100" y="40" width="10" height="10" fill="#FFE58B"/>
<rect x="80" y="40" width="10" height="10" fill="#FFE58B"/>
<rect x="100" y="20" width="10" height="10" fill="#FFE58B"/>
<rect x="120" width="10" height="10" fill="#FFE58B"/>
<rect x="120" y="10" width="10" height="10" fill="#FFE58B"/>
<rect x="80" width="10" height="10" fill="#FFE58B"/>
<rect x="80" y="10" width="10" height="10" fill="#FFE58B"/>
<rect x="100" y="10" width="10" height="10" fill="#FFE58B"/>
<rect x="100" width="10" height="10" fill="#FFE58B"/>
<rect x="40" y="10" width="10" height="10" fill="#FFE58B"/>
<rect x="50" width="10" height="10" fill="#FFE58B"/>
<rect x="60" y="10" width="10" height="10" fill="#FFE58B"/>
<rect x="60" y="20" width="10" height="10" fill="#FFE58B"/>
<rect x="50" y="20" width="10" height="10" fill="#FFE58B"/>
<rect x="60" y="30" width="10" height="10" fill="#FFE58B"/>
<rect x="60" y="40" width="10" height="10" fill="#FFE58B"/>
<rect x="40" y="20" width="10" height="10" fill="#FFE58B"/>
<rect x="40" y="30" width="10" height="10" fill="#FFE58B"/>
<rect x="40" y="40" width="10" height="10" fill="#FFE58B"/>
</svg>
