<svg width="228" height="60" viewBox="0 0 228 60" fill="none" xmlns="http://www.w3.org/2000/svg">
<rect x="24" width="12" height="12" fill="#4EC970"/>
<rect x="12.0001" width="12" height="12" fill="#4EC970"/>
<rect x="24" y="47.9999" width="12" height="12" fill="#4EC970"/>
<rect width="12" height="12" fill="#4EC970"/>
<rect y="12.0001" width="12" height="12" fill="#4EC970"/>
<rect x="12.0001" y="24.0002" width="12" height="12" fill="#4EC970"/>
<rect x="24" y="35.9999" width="12" height="12" fill="#4EC970"/>
<rect x="12.0001" y="47.9999" width="12" height="12" fill="#4EC970"/>
<rect y="47.9999" width="12" height="12" fill="#4EC970"/>
<rect x="95.9996" y="12.0001" width="12" height="12" fill="#4EC970"/>
<rect x="108" width="12" height="12" fill="#4EC970"/>
<rect x="120" y="12.0001" width="12" height="12" fill="#4EC970"/>
<rect x="120" y="24.0002" width="12" height="12" fill="#4EC970"/>
<rect x="108" y="24.0002" width="12" height="12" fill="#4EC970"/>
<rect x="120" y="35.9999" width="12" height="12" fill="#4EC970"/>
<rect x="120" y="47.9999" width="12" height="12" fill="#4EC970"/>
<rect x="95.9996" y="24.0002" width="12" height="12" fill="#4EC970"/>
<rect x="95.9996" y="35.9999" width="12" height="12" fill="#4EC970"/>
<rect x="95.9996" y="47.9999" width="12" height="12" fill="#4EC970"/>
<rect x="47.9999" width="12" height="12" fill="#4EC970"/>
<rect x="59.9998" width="12" height="12" fill="#4EC970"/>
<rect x="71.9998" width="12" height="12" fill="#4EC970"/>
<rect x="59.9998" y="12.0001" width="12" height="12" fill="#4EC970"/>
<rect x="59.9998" y="24.0002" width="12" height="12" fill="#4EC970"/>
<rect x="59.9998" y="47.9999" width="12" height="12" fill="#4EC970"/>
<rect x="59.9998" y="35.9999" width="12" height="12" fill="#4EC970"/>
<rect x="192" width="12" height="12" fill="#4EC970"/>
<rect x="204" width="12" height="12" fill="#4EC970"/>
<rect x="216" width="12" height="12" fill="#4EC970"/>
<rect x="204" y="12.0001" width="12" height="12" fill="#4EC970"/>
<rect x="204" y="24.0002" width="12" height="12" fill="#4EC970"/>
<rect x="204" y="47.9999" width="12" height="12" fill="#4EC970"/>
<rect x="204" y="35.9999" width="12" height="12" fill="#4EC970"/>
<rect x="144" width="12" height="12" fill="#4EC970"/>
<rect x="144" y="12.0001" width="12" height="12" fill="#4EC970"/>
<rect x="144" y="24.0002" width="12" height="12" fill="#4EC970"/>
<rect x="144" y="35.9999" width="12" height="12" fill="#4EC970"/>
<rect x="144" y="47.9999" width="12" height="12" fill="#4EC970"/>
<rect x="156" width="12" height="12" fill="#4EC970"/>
<rect x="168" y="12.0001" width="12" height="12" fill="#4EC970"/>
<rect x="168" width="12" height="12" fill="#4EC970"/>
<rect x="168" y="24.0002" width="12" height="12" fill="#4EC970"/>
<rect x="156" y="35.9999" width="12" height="12" fill="#4EC970"/>
<rect x="168" y="47.9999" width="12" height="12" fill="#4EC970"/>
</svg>
